<?xml version="1.0" standalone="no"?>
<!DOCTYPE svg PUBLIC "-//W3C//DTD SVG 20010904//EN"
 "http://www.w3.org/TR/2001/REC-SVG-20010904/DTD/svg10.dtd">
<svg version="1.0" xmlns="http://www.w3.org/2000/svg"
 width="360.000000pt" height="360.000000pt" viewBox="0 0 360.000000 360.000000"
 preserveAspectRatio="xMidYMid meet">
<metadata>
Created by potrace 1.14, written by Peter Selinger 2001-2017
</metadata>
<g transform="translate(0.000000,360.000000) scale(0.100000,-0.100000)"
fill="#000000" stroke="none">
<path d="M1695 3594 c-194 -18 -333 -45 -470 -91 -44 -15 -83 -26 -87 -25 -5
1 -8 -3 -8 -9 0 -6 -7 -9 -15 -5 -8 3 -15 2 -15 -2 0 -8 -60 -36 -72 -33 -5 0
-8 -4 -8 -10 0 -5 -4 -8 -9 -5 -5 3 -14 -1 -21 -9 -7 -8 -17 -15 -23 -15 -18
0 -148 -80 -247 -153 -120 -88 -286 -256 -369 -372 -65 -92 -157 -245 -154
-254 1 -4 -5 -13 -13 -22 -8 -9 -11 -19 -7 -22 3 -4 1 -7 -5 -7 -7 0 -11 -3
-10 -7 1 -5 -6 -26 -16 -48 -99 -227 -156 -542 -141 -780 11 -190 49 -390 96
-508 12 -29 22 -56 23 -62 1 -5 7 -20 14 -31 6 -12 8 -24 5 -28 -3 -3 -1 -6 6
-6 7 0 10 -4 7 -8 -3 -5 4 -23 15 -40 10 -18 19 -39 19 -47 0 -8 5 -15 10 -15
6 0 10 -4 10 -10 0 -18 92 -165 161 -257 38 -51 110 -133 160 -183 87 -86 269
-231 327 -261 15 -7 47 -27 72 -43 25 -17 45 -29 45 -28 0 2 23 -7 50 -19 28
-13 56 -24 64 -25 8 -2 18 -9 22 -16 5 -7 9 -9 9 -4 0 5 7 3 15 -4 8 -7 15
-10 15 -7 0 3 17 -1 38 -10 232 -97 617 -133 902 -84 123 21 223 47 310 79 25
9 47 17 50 18 3 0 16 5 30 11 30 14 58 23 66 22 4 0 10 4 14 11 4 6 13 12 21
13 8 2 19 5 24 9 6 3 37 21 70 39 194 105 395 278 541 465 67 86 194 289 194
311 0 7 5 13 11 13 5 0 7 5 4 10 -3 6 -2 10 2 10 5 0 9 10 10 22 1 11 7 24 13
28 7 4 12 11 12 16 0 5 4 18 8 29 4 11 17 46 28 77 48 129 85 320 97 505 12
180 -22 439 -83 628 -14 44 -25 83 -24 88 1 4 -2 7 -8 7 -6 0 -9 3 -8 8 1 4
-3 17 -10 30 -7 12 -10 22 -6 22 3 0 -1 11 -10 25 -9 14 -13 25 -9 25 5 0 4 4
-2 8 -5 4 -20 30 -33 57 -13 28 -31 61 -40 75 -9 14 -17 27 -17 30 -2 19 -137
203 -213 289 -120 135 -351 313 -495 381 -31 15 -64 33 -72 40 -8 7 -15 9 -15
5 0 -5 -9 0 -20 10 -11 10 -20 15 -20 10 0 -4 -6 -2 -13 4 -8 6 -17 8 -20 4
-4 -3 -7 -1 -7 6 0 7 -4 10 -9 7 -5 -3 -24 2 -42 11 -19 9 -41 18 -49 19 -8 2
-55 14 -104 28 -149 42 -437 73 -571 60z"/>
</g>
</svg>
